<svg width="768" height="56" viewBox="0 0 768 56" fill="none" xmlns="http://www.w3.org/2000/svg">
<path d="M0 19.6402C0 19.6402 19.749 31.1137 35.328 40.0238C61.42 54.9465 96.256 31.2092 113.152 33.4129C176.896 41.7265 186.112 30.0968 210.688 28.9798C224.512 34.1061 242.176 26.2511 252.672 24.323C276.27 19.988 277.421 25.7222 289.28 27.6284C301.312 21.5684 314.368 30.4556 324.096 28.9798C333.056 28.9798 347.37 42.7689 365.056 46.0837C388.893 50.5515 413.808 41.8064 447.182 34.1061C475.904 40.2992 506.88 19.6661 527.104 24.323C547.328 28.9798 768 56 768 56H0V19.6402Z" fill="#001F56"/>
<path d="M462.822 34.887C461.983 33.3157 460.08 33.825 458.604 34.4229C456.71 35.1914 454.815 35.9584 452.92 36.7267C454.128 32.6822 459.965 31.4733 460.474 27.392C460.619 26.229 460.135 24.9247 459.149 24.4398C458.105 23.9272 456.523 24.2208 455.055 26.5794C454.128 28.0703 453.482 29.7649 453.168 31.5277C452.968 32.649 452.667 34.0037 451.57 33.8683C453.217 20.7185 453.389 20.3961 452.983 19.0247C452.676 17.9855 451.791 17.0612 450.785 17.1429C449.655 17.2354 448.031 18.7758 449.438 22.3004C449.822 23.2629 450.297 24.1943 450.513 25.2173C450.942 27.2506 450.303 29.353 449.672 31.3271L448.221 35.8577C448.088 36.2737 447.946 36.7062 447.657 37.0166C447.087 37.6312 446.248 37.4816 446.127 36.2458C445.976 34.6988 446.445 33.1624 446.97 31.7127C447.432 30.4364 449.708 25.343 446.689 23.1246C445.501 22.2507 443.548 22.6549 443.065 24.1212C442.569 25.6253 443.696 27.1099 444.343 28.5429C445.178 30.3966 445.219 32.65 444.45 34.541C441.837 33.793 440.944 30.6195 440.327 28.2659C437.355 16.9172 444.178 19.3049 446.248 17.4006C446.99 16.7176 447.316 15.5301 446.993 14.5366C446.669 13.543 445.691 12.8344 444.722 12.9391C442.546 13.1721 441.847 16.6378 439.747 17.2995C438.648 17.6464 437.376 17.015 436.849 15.9165C436.321 14.8129 436.513 13.4896 436.558 12.246C436.602 10.9987 436.377 9.55798 435.383 8.9339C434.247 8.22092 432.174 8.84239 431.631 11.724C430.713 16.5943 434.624 18.4703 436.061 20.9122C438.156 24.4734 436.659 29.7778 439.287 32.8959C439.59 33.2545 439.969 33.691 439.824 34.151C439.66 34.6684 439.006 34.9195 438.037 34.0419C436.573 32.7146 435.255 31.1995 434.12 29.5371C433.196 28.1841 431.865 26.033 429.948 26.604C428.168 27.1336 427.294 30.3537 430.098 32.5305C431.244 33.4206 432.236 33.7178 437.157 35.6035C439.13 36.3592 439.268 38.0783 436.61 38.6683C435.324 38.9528 434.019 39.3093 432.929 40.1005C431.838 40.8917 430.986 42.2026 431.012 43.6225C431.056 46.0167 433.833 47.7572 435.671 44.7256C436.177 43.8933 436.477 42.9377 436.91 42.0583C438.562 38.7055 441.322 38.3006 442.868 39.3921C444.178 40.3177 444.6 42.2749 444.243 43.9253C443.938 45.3316 443.175 46.5531 442.326 47.6808L446.458 48.3641C446.859 46.4051 447.305 44.4414 448.19 42.6835C449.164 40.7528 450.757 39.072 452.741 38.5967C455.665 37.8957 459.09 39.9588 461.742 38.1349C462.734 37.4518 463.409 35.9858 462.822 34.887Z" fill="#001F56"/>
<path d="M297.108 36.9008C297.137 36.8147 297.159 36.7234 297.173 36.6292C297.274 35.9299 297.538 35.6888 298.064 35.2086C298.736 34.5951 299.656 33.7553 299.92 31.9393C300.185 30.1242 299.548 29.0212 299.083 28.2159C298.977 28.0355 298.889 27.8808 298.817 27.7347C302.661 28.3541 306.461 25.8873 307.634 21.7959C307.86 21.0083 307.446 20.1733 306.71 19.9304C305.973 19.6873 305.193 20.1287 304.967 20.9163C304.268 23.3547 302.136 24.9051 299.86 24.8422C300.473 24.2491 301.162 23.4118 301.385 21.8817C301.649 20.0666 301.013 18.9635 300.547 18.1583C300.183 17.5288 300 17.2123 300.102 16.5131C300.112 16.4438 300.124 16.3797 300.138 16.3189C300.152 16.3198 300.167 16.3206 300.181 16.3215C304.587 16.5337 308.325 12.8726 308.516 8.16004C308.549 7.33676 307.951 6.6393 307.183 6.60217C306.413 6.565 305.762 7.20197 305.729 8.02531C305.64 10.2267 304.362 12.0758 302.587 12.8945C302.701 12.5801 302.791 12.226 302.85 11.8242C303.114 10.0091 302.477 8.90606 302.012 8.10077C301.648 7.4706 301.465 7.15412 301.567 6.45482C301.669 5.75552 301.933 5.51528 302.458 5.03504C303.13 4.4215 304.05 3.58092 304.314 1.76577C304.436 0.932515 303.903 0.150192 303.124 0.0188427C302.345 -0.112506 301.614 0.456849 301.493 1.29008C301.391 1.98938 301.128 2.22973 300.602 2.70997C299.93 3.32352 299.01 4.16398 298.745 5.97913C298.481 7.79501 299.118 8.89741 299.584 9.70269C299.948 10.3329 300.13 10.6492 300.028 11.3485C299.926 12.0478 299.663 12.2882 299.137 12.7684C299.043 12.8545 298.944 12.9456 298.842 13.0424C296.713 12.2592 295.221 10.0482 295.323 7.52435C295.356 6.70108 294.759 6.0036 293.99 5.96729C293.22 5.93012 292.569 6.56709 292.536 7.39043C292.389 11.0301 294.403 14.2488 297.356 15.6228C297.327 15.7559 297.301 15.8936 297.28 16.0376C297.016 17.8534 297.654 18.9558 298.119 19.7611C298.483 20.3913 298.665 20.7077 298.563 21.4062C298.462 22.1055 298.198 22.3467 297.673 22.826C297.41 23.0658 297.11 23.3407 296.826 23.6933C295.147 22.3149 294.354 19.9162 295.009 17.6316C295.235 16.8439 294.821 16.009 294.084 15.766C293.348 15.523 292.568 15.9643 292.342 16.7519C291.257 20.5381 292.762 24.5287 295.768 26.5331C295.657 28.0916 296.228 29.0806 296.654 29.8187C297.018 30.4489 297.201 30.7652 297.099 31.4637C296.997 32.163 296.734 32.4043 296.208 32.8844C295.536 33.498 294.616 34.3376 294.351 36.1536C294.337 36.2478 294.332 36.3418 294.335 36.4333" fill="#001F56"/>
<path d="M306.355 39.0398C306.063 38.9905 305.862 38.6971 305.908 38.3844C306.012 37.6675 306.329 37.3158 306.561 37.0588C306.757 36.8416 306.875 36.7104 306.927 36.3511C306.979 35.9919 306.904 35.8281 306.78 35.5569C306.632 35.2361 306.43 34.7968 306.535 34.0799C306.639 33.363 306.956 33.0111 307.188 32.7543C307.384 32.5371 307.502 32.4059 307.554 32.0465C307.606 31.6871 307.531 31.5233 307.406 31.252C307.259 30.9311 307.057 30.4919 307.162 29.775C307.207 29.4623 307.481 29.2488 307.774 29.2981C308.066 29.3474 308.266 29.6408 308.22 29.9535C308.168 30.3129 308.243 30.4766 308.368 30.748C308.515 31.0688 308.717 31.5081 308.613 32.225C308.508 32.9419 308.191 33.2937 307.96 33.5506C307.764 33.7679 307.646 33.899 307.594 34.2584C307.541 34.6178 307.616 34.7815 307.741 35.0528C307.888 35.3736 308.09 35.8128 307.986 36.5297C307.882 37.2466 307.564 37.5984 307.333 37.8553C307.137 38.0725 307.019 38.2036 306.967 38.563C306.921 38.8756 306.647 39.0891 306.355 39.0398Z" fill="#001F56"/>
<path d="M286.917 35.7626C286.624 35.7134 286.424 35.4199 286.47 35.1072C286.597 34.2347 286.97 33.8204 287.27 33.4875C287.525 33.2049 287.709 33.0007 287.784 32.4857C287.859 31.9708 287.742 31.7157 287.579 31.3629C287.389 30.9472 287.151 30.43 287.278 29.5575C287.405 28.6849 287.778 28.2706 288.078 27.9377C288.333 27.655 288.517 27.4508 288.592 26.9357C288.667 26.4207 288.55 26.1656 288.388 25.8127C288.197 25.397 287.959 24.8796 288.086 24.0071C288.132 23.6944 288.406 23.4809 288.698 23.5302C288.99 23.5795 289.19 23.8729 289.145 24.1856C289.07 24.7006 289.187 24.9558 289.349 25.3086C289.54 25.7243 289.778 26.2417 289.651 27.1142C289.524 27.9868 289.15 28.4011 288.85 28.734C288.596 29.0167 288.412 29.2209 288.337 29.736C288.262 30.251 288.379 30.5059 288.541 30.8588C288.732 31.2745 288.97 31.7918 288.842 32.6643C288.715 33.5368 288.342 33.9511 288.042 34.284C287.787 34.5666 287.603 34.7708 287.528 35.2859C287.483 35.5984 287.209 35.8119 286.917 35.7626Z" fill="#001F56"/>
<path d="M291.322 36.5053C291.03 36.456 290.829 36.1625 290.875 35.8498C290.95 35.3349 290.833 35.0798 290.671 34.727C290.48 34.3114 290.242 33.7941 290.369 32.9216C290.496 32.0491 290.87 31.6348 291.17 31.302C291.424 31.0193 291.608 30.8151 291.683 30.3001C291.758 29.7846 291.641 29.5294 291.479 29.1763C291.288 28.7606 291.051 28.2434 291.178 27.3711C291.223 27.0584 291.497 26.8449 291.789 26.8942C292.082 26.9434 292.282 27.2369 292.236 27.5496C292.161 28.0645 292.278 28.3194 292.44 28.6725C292.631 29.0883 292.869 29.6057 292.742 30.4785C292.615 31.351 292.242 31.7653 291.942 32.0981C291.687 32.3808 291.503 32.585 291.428 33.1C291.353 33.615 291.47 33.8699 291.632 34.2228C291.823 34.6385 292.061 35.1557 291.934 36.0282C291.888 36.341 291.614 36.5546 291.322 36.5053Z" fill="#001F56"/>
<path d="M312.919 40.1465L280.593 34.6966C280.301 34.6473 280.101 34.3539 280.147 34.0412C280.192 33.7285 280.466 33.515 280.758 33.5643L313.084 39.0142C313.377 39.0635 313.577 39.3569 313.531 39.6696C313.486 39.9823 313.212 40.1958 312.919 40.1465Z" fill="#001F56"/>
<path d="M205.776 12.6462C205.38 12.5359 204.976 12.7973 204.874 13.2306C204.851 13.3386 204.22 15.8662 201.882 15.8662C200.897 15.8151 199.91 15.9159 198.951 16.1657C199.598 14.8921 200.136 13.5551 200.556 12.1721C202.076 11.3461 203.123 9.75044 203.352 7.91146C203.42 7.47841 203.16 7.06474 202.766 6.97814C202.372 6.89155 201.987 7.16346 201.897 7.59164C201.762 8.52597 201.365 9.39144 200.761 10.0682C200.645 8.55955 200.241 7.09413 199.577 5.76611C199.393 5.36488 198.947 5.20207 198.58 5.40246C198.213 5.60285 198.064 6.09055 198.248 6.49178C199.577 9.39689 199.489 10.9456 198.822 12.7152C198.019 12.1556 197.503 11.2165 197.427 10.1786C197.426 9.73027 197.092 9.36813 196.682 9.3697C196.272 9.37127 195.941 9.73595 195.942 10.1842C196.028 11.8473 196.872 13.3521 198.189 14.19C197.55 15.5063 197.002 16.8727 196.548 18.2778C196.029 17.7382 195.467 17.2493 194.87 16.8167C193.221 15.6154 194.332 13.0894 194.38 12.9822C194.563 12.5808 194.414 12.0934 194.046 11.8937C193.679 11.694 193.233 11.8575 193.051 12.259C192.436 13.6032 191.853 16.5692 194.046 18.1674C194.796 18.7029 195.476 19.3471 196.068 20.0822C196.032 20.2446 195.994 20.3964 195.96 20.5628C195.71 21.7673 195.566 22.995 195.529 24.2293C195.059 23.8628 194.562 23.5384 194.044 23.2593C193.431 22.9372 193.023 22.2815 192.973 21.5401C192.971 21.0918 192.637 20.7302 192.227 20.7324C191.817 20.7347 191.486 21.0999 191.488 21.5482C191.541 22.9037 192.268 24.1186 193.383 24.7139C194.196 25.147 194.943 25.7149 195.597 26.3974C195.647 26.9679 195.727 27.5348 195.836 28.0954C194.783 28.528 193.597 28.2881 192.755 27.4721C192.464 27.1644 192.001 27.1688 191.715 27.4819C191.428 27.795 191.424 28.3013 191.706 28.6198C192.538 29.4656 193.632 29.9359 194.769 29.9364C195.266 29.9313 195.76 29.8375 196.23 29.6588C196.53 30.6769 196.968 31.6402 197.528 32.5168C197.683 32.7578 197.945 32.8882 198.213 32.8575C198.481 32.8269 198.713 32.64 198.818 32.3692C198.924 32.0984 198.888 31.7862 198.723 31.5533C198.055 30.4619 197.586 29.2399 197.341 27.9542C198.012 27.1757 198.881 26.6339 199.835 26.3982C200.094 26.3294 200.299 26.1141 200.373 25.8341C200.447 25.5541 200.378 25.2524 200.192 25.0435C200.006 24.8346 199.732 24.7506 199.474 24.8234C198.604 25.0526 197.786 25.4705 197.066 26.0524C197 25.1946 196.999 24.3324 197.061 23.4744C197.136 23.4784 197.21 23.4898 197.284 23.4898C198.947 23.4086 200.517 22.6294 201.668 21.3144C202.171 20.6235 203.02 20.3587 203.781 20.6553C204.018 20.7849 204.301 20.7663 204.522 20.6063C204.744 20.4463 204.87 20.1694 204.854 19.8798C204.838 19.5902 204.682 19.332 204.445 19.2024C203.113 18.5838 201.568 18.9731 200.618 20.1667C199.732 21.176 198.528 21.7792 197.251 21.8542C197.418 20.7536 197.673 19.6712 198.014 18.6195C199.031 17.5002 200.117 17.4896 201.882 17.4896C203.989 17.4513 205.809 15.866 206.314 13.6283C206.412 13.195 206.172 12.7562 205.776 12.6462Z" fill="#001F56"/>
<path d="M577.332 28.268C577.167 28.1746 573.302 25.8923 575.029 18.3217C575.187 17.6263 575.835 17.2076 576.476 17.3865C577.117 17.5653 577.508 18.274 577.349 18.9694C576.093 24.4748 578.395 25.9495 578.419 25.9629C579.006 26.295 579.277 27.1035 578.94 27.717C578.465 28.578 577.638 28.441 577.332 28.268Z" fill="#001F56"/>
<path d="M582.248 31.3339C580.594 31.9648 579.106 31.935 577.978 31.7169C576.002 31.3348 574.728 30.3268 574.589 30.2132C574.06 29.7796 573.949 28.9641 574.343 28.3918C574.736 27.8214 575.481 27.7079 576.01 28.1364C576.175 28.2674 579.847 31.1028 584.009 27.2075C584.508 26.7415 585.262 26.8065 585.695 27.3525C586.128 27.8987 586.075 28.7194 585.577 29.1855C584.434 30.255 583.307 30.93 582.248 31.3339Z" fill="#001F56"/>
<path d="M561.058 30.3854C560.199 30.7131 559.173 30.9548 557.949 31.0517C557.291 31.1038 556.714 30.5654 556.66 29.8492C556.607 29.133 557.096 28.5104 557.754 28.4583C562.227 28.1045 563.015 25.423 563.015 25.423L565.331 26.0886C565.296 26.2353 564.592 29.0374 561.058 30.3854Z" fill="#001F56"/>
<path d="M559.762 24.5707C559.116 24.4267 558.694 23.7427 558.818 23.0411C558.827 22.9847 559.334 19.8244 557.455 17.4491C557.022 16.9025 557.076 16.0819 557.574 15.6163C558.073 15.1503 558.827 15.2163 559.26 15.7628C561.925 19.1314 561.194 23.3787 561.164 23.5584C560.978 24.6928 559.982 24.6196 559.762 24.5707Z" fill="#001F56"/>
<path d="M580.371 29.17C577.908 29.6048 576.124 28.2268 576.01 28.1364C575.481 27.7079 574.736 27.8214 574.343 28.3918C573.949 28.9641 574.06 29.7796 574.589 30.2132C574.717 30.3177 575.806 31.1788 577.518 31.6134C578.567 30.8631 579.519 30.0473 580.371 29.17Z" fill="#001F56"/>
<path d="M575.109 25.2595C575.879 27.4156 577.233 28.2146 577.329 28.2691C577.635 28.4421 578.463 28.5791 578.937 27.718C579.275 27.1045 579.004 26.296 578.416 25.9639C578.4 25.9551 577.38 25.3014 577.064 23.2524C576.513 23.962 575.862 24.6303 575.109 25.2595Z" fill="#001F56"/>
<path d="M571.078 32.7769C569.468 33.3909 568.343 33.634 568.258 33.6517C567.611 33.7881 566.981 33.3273 566.85 32.6222C566.719 31.9178 567.136 31.2368 567.782 31.0991C567.816 31.0918 571.281 30.335 574.667 28.0704C579.04 25.145 581.252 21.1693 581.241 16.2538C581.239 15.5358 581.773 14.9575 582.433 14.9621C583.093 14.9668 583.629 15.5526 583.631 16.2706C583.645 22.0887 580.96 26.9505 575.869 30.3305C574.151 31.4708 572.441 32.2569 571.078 32.7769Z" fill="#001F56"/>
<path d="M572.8 18.4698C572.732 18.4645 571.111 18.3309 569.304 17.4406C566.833 16.2235 565.165 14.1804 564.481 11.5322C564.302 10.8393 564.672 10.1237 565.307 9.9363C565.942 9.74777 566.602 10.1566 566.781 10.8494C567.267 12.7297 568.42 14.1399 570.208 15.041C571.631 15.758 572.938 15.8753 572.951 15.8763C573.608 15.9317 574.162 16.5616 574.064 17.269C573.922 18.293 572.967 18.4827 572.8 18.4698Z" fill="#001F56"/>
<path d="M563.021 25.3993C563.001 25.4727 562.656 26.6443 561.113 27.5254C561.666 27.8794 562.202 28.2817 562.718 28.732C562.887 28.8795 563.048 29.0273 563.201 29.174C564.9 27.8086 565.305 26.1988 565.331 26.0886L563.015 25.423C563.015 25.423 563.017 25.4148 563.021 25.3993Z" fill="#001F56"/>
<path d="M561.142 20.2167C560.318 19.8851 559.432 19.5987 558.483 19.3805C559.105 21.2504 558.825 22.9992 558.818 23.0411C558.694 23.7427 559.116 24.4267 559.762 24.5707C559.982 24.6196 560.978 24.6928 561.164 23.5584C561.181 23.4562 561.425 22.0392 561.142 20.2167Z" fill="#001F56"/>
<path d="M568.374 31.3211C567.848 31.5217 567.245 31.2963 566.947 30.7529C566.937 30.7348 565.924 28.9272 563.881 27.1461C561.183 24.7937 558.04 23.5866 554.539 23.5586C553.879 23.5533 553.344 22.9669 553.342 22.2489C553.341 21.531 553.875 20.9531 554.536 20.9584C559.633 20.9993 563.285 23.2857 565.45 25.1966C567.8 27.2703 568.949 29.3489 568.997 29.4364C569.335 30.0561 569.15 30.8524 568.584 31.2151C568.516 31.2586 568.446 31.2938 568.374 31.3211Z" fill="#001F56"/>
<path d="M565.723 25.4426C565.415 26.4365 565.206 27.3916 565.073 28.2981C566.319 29.6315 566.939 30.7388 566.947 30.7529C567.245 31.2963 567.848 31.5217 568.374 31.3211C568.446 31.2938 568.516 31.2586 568.584 31.2151C569.15 30.8524 569.335 30.0561 568.997 29.4364C568.951 29.3522 567.888 27.4317 565.723 25.4426Z" fill="#001F56"/>
<path d="M571.056 30.0022C569.188 30.792 567.804 31.0945 567.782 31.0991C567.136 31.2368 566.719 31.9178 566.85 32.6222C566.981 33.3273 567.611 33.7881 568.258 33.6517C568.343 33.634 569.468 33.3909 571.078 32.7769C571.108 32.7654 571.139 32.7531 571.169 32.7414C571.157 32.6728 571.145 32.6034 571.134 32.5329C571.004 31.6977 570.979 30.8534 571.056 30.0022Z" fill="#001F56"/>
<path d="M574.064 17.269C574.162 16.5616 573.608 15.9317 572.951 15.8763C572.938 15.8753 571.648 15.7594 570.236 15.0548C570.047 15.8855 569.793 16.7084 569.473 17.5223C571.211 18.3393 572.734 18.4647 572.8 18.4698C572.967 18.4827 573.922 18.293 574.064 17.269Z" fill="#001F56"/>
<path d="M568.728 38.3027C568.676 38.2261 567.448 36.3914 566.955 33.4183C566.507 30.7139 566.589 26.4817 569.527 21.6773C574.385 13.7343 571.869 6.88124 571.843 6.81289C571.59 6.14738 571.879 5.38943 572.489 5.11991C573.1 4.85004 573.797 5.17164 574.051 5.83717C574.083 5.92271 574.848 7.96934 574.904 11.123C574.955 13.9934 574.41 18.4068 571.521 23.1311C569.54 26.3704 568.788 29.642 569.287 32.8549C569.662 35.2672 570.64 36.7606 570.65 36.7755C571.044 37.3555 570.924 38.1555 570.402 38.5893C569.712 39.1623 569.05 38.7773 568.728 38.3027Z" fill="#001F56"/>
<path d="M574.47 8.04907C573.486 8.42437 572.975 9.59903 573.329 10.6728C573.581 11.4386 574.205 11.946 574.899 12.0379C574.908 11.7183 574.91 11.4125 574.904 11.123C574.883 9.90012 574.754 8.84474 574.603 8.00462C574.559 8.01781 574.514 8.03217 574.47 8.04907Z" fill="#001F56"/>
<path d="M567.798 25.2251C568.167 25.3439 568.571 25.3432 568.96 25.1949C569.944 24.8196 570.454 23.6449 570.101 22.5712C569.982 22.2101 569.78 21.9071 569.527 21.6773C569.527 21.6772 569.527 21.6774 569.527 21.6773C568.778 22.9023 568.215 24.0903 567.798 25.2251Z" fill="#001F56"/>
<path d="M567.871 36.6275C568.605 36.1305 568.947 35.1264 568.641 34.1973C568.364 33.3572 567.64 32.8279 566.866 32.8171C566.892 33.0214 566.921 33.2189 566.952 33.4085C567.17 34.7215 567.531 35.812 567.871 36.6275Z" fill="#001F56"/>
<path d="M583.427 19.0112C583.167 18.9864 582.899 19.0191 582.638 19.1187C581.654 19.494 581.143 20.6687 581.497 21.7424C581.656 22.2228 581.96 22.6012 582.337 22.8395C582.855 21.6306 583.219 20.3517 583.427 19.0112Z" fill="#001F56"/>
<path d="M573.831 28.5987C572.625 29.3211 571.446 29.8592 570.454 30.2472C570.935 30.9794 571.817 31.3134 572.63 31.003C573.548 30.6531 574.053 29.6086 573.831 28.5987Z" fill="#001F56"/>
<path d="M562.837 29.4472C562.337 28.8416 561.536 28.5863 560.792 28.8702C560.011 29.1679 559.529 29.9689 559.539 30.8234C559.54 30.8244 559.54 30.8252 559.54 30.8262C560.096 30.7094 560.601 30.5597 561.058 30.3854C561.756 30.1189 562.342 29.7955 562.837 29.4472Z" fill="#001F56"/>
<path d="M576.56 19.5266C575.576 19.9019 575.066 21.0766 575.419 22.1503C575.687 22.9619 576.372 23.4832 577.115 23.5274C576.922 22.5452 576.892 21.2071 577.254 19.4128C577.024 19.4034 576.789 19.4391 576.56 19.5266Z" fill="#001F56"/>
<path d="M559.21 18.4341C559.497 19.3063 560.266 19.8435 561.072 19.8134C560.856 18.6959 560.433 17.4579 559.647 16.2911C559.149 16.8327 558.954 17.6595 559.21 18.4341Z" fill="#001F56"/>
<path d="M582.247 31.3342C582.74 31.1461 583.248 30.8983 583.765 30.5803C583.27 29.9313 582.442 29.6485 581.673 29.9416C580.923 30.2277 580.449 30.9788 580.423 31.7952C580.999 31.7213 581.61 31.577 582.247 31.3342Z" fill="#001F56"/>
<path d="M555.23 22.1182C554.646 22.3412 554.228 22.8465 554.06 23.4452C554.207 23.5164 554.369 23.5573 554.539 23.5586C555.65 23.5675 556.724 23.6955 557.759 23.9405C557.748 23.7547 557.713 23.5673 557.652 23.3828C557.298 22.309 556.214 21.7428 555.23 22.1182Z" fill="#001F56"/>
<path d="M565.45 25.1966C564.681 24.5177 563.723 23.7917 562.58 23.1355C562.499 23.5094 562.513 23.9132 562.641 24.3038C562.995 25.3775 564.079 25.9437 565.063 25.5684C565.243 25.4999 565.406 25.4044 565.552 25.2881C565.518 25.2577 565.484 25.2271 565.45 25.1966Z" fill="#001F56"/>
<path d="M567.106 13.4817C566.752 12.4082 565.668 11.842 564.684 12.2169C565.119 13.5066 565.803 14.6355 566.713 15.5743C567.177 15.0326 567.353 14.2326 567.106 13.4817Z" fill="#001F56"/>
<path d="M513.485 24.3205C513.433 24.3205 513.381 24.314 513.33 24.3008C511.389 23.7986 510.164 23.0666 509.474 21.9975C508.836 21.0064 508.749 19.8971 508.657 18.7226C508.521 16.9958 508.381 15.2102 506.555 13.188C506.37 12.9834 506.317 12.6796 506.42 12.4167C506.524 12.1539 506.763 11.983 507.028 11.983C508.728 11.983 509.943 12.5934 510.743 13.849C511.414 14.9004 511.685 16.2473 511.948 17.5499C512.407 19.8235 512.803 21.7871 515.052 22.167C515.339 22.2154 515.562 22.4592 515.603 22.768C515.644 23.0768 515.493 23.3783 515.231 23.5111L513.766 24.2529C513.677 24.2978 513.581 24.3205 513.485 24.3205Z" fill="#001F56"/>
<path d="M518.116 23.9985C517.86 23.9985 517.617 23.838 517.509 23.5695C516.744 21.6611 517.253 20.0315 517.793 18.3062C518.322 16.6133 518.922 14.6944 518.478 12.0128C518.415 11.6267 518.654 11.2579 519.013 11.1892C519.371 11.1204 519.714 11.3778 519.778 11.764C520.281 14.8031 519.595 16.9966 519.044 18.7591C518.548 20.3452 518.156 21.5981 518.721 23.0068C518.866 23.3669 518.711 23.7848 518.377 23.9402C518.292 23.9798 518.203 23.9985 518.116 23.9985Z" fill="#001F56"/>
<path d="M519.778 11.764C519.714 11.3778 519.371 11.1204 519.013 11.1892C518.654 11.2579 518.415 11.6267 518.478 12.0128C518.922 14.6944 518.322 16.6133 517.793 18.3062C517.754 18.4317 517.715 18.5565 517.676 18.681V23.8182C517.797 23.9338 517.954 23.9985 518.116 23.9985C518.203 23.9985 518.292 23.9798 518.377 23.9402C518.711 23.7848 518.866 23.3669 518.721 23.0068C518.156 21.5981 518.548 20.3452 519.044 18.7591C519.595 16.9966 520.281 14.8031 519.778 11.764Z" fill="#001F56"/>
<path d="M522.119 23.961C522.012 23.961 521.902 23.9325 521.801 23.8726C521.482 23.6832 521.366 23.2513 521.542 22.9078C522.486 21.0657 523.734 20.3891 524.835 19.7923C526.103 19.1052 527.104 18.5625 527.593 16.3183C527.677 15.9365 528.032 15.6997 528.387 15.7892C528.742 15.8788 528.962 16.261 528.878 16.6428C528.248 19.5326 526.75 20.3444 525.429 21.0606C524.409 21.6138 523.445 22.1363 522.698 23.5935C522.578 23.8283 522.352 23.961 522.119 23.961Z" fill="#001F56"/>
<path d="M514.727 24.0933C514.495 24.0933 514.279 23.9616 514.159 23.7457C511.332 18.6222 512.272 15.205 513.102 12.19C513.85 9.474 514.496 7.12838 512.647 3.6735C512.519 3.43498 512.531 3.13862 512.678 2.91288C512.824 2.68715 513.078 2.57267 513.331 2.61926C515.51 3.0213 516.815 4.54831 517.208 7.15792C517.531 9.30049 517.232 11.9209 516.943 14.455C516.51 18.2459 516.101 21.8265 517.875 22.6341C518.161 22.7641 518.324 23.0907 518.267 23.4187C518.21 23.7467 517.948 23.9878 517.638 23.998L514.747 24.093C514.74 24.0932 514.734 24.0933 514.727 24.0933Z" fill="#001F56"/>
<path d="M521.592 23.9609C521.577 23.9609 521.563 23.9604 521.548 23.9593L518.292 23.7226C518.038 23.7041 517.817 23.5305 517.723 23.2763C517.629 23.022 517.679 22.7323 517.852 22.5316C520.935 18.9487 521.197 13.0117 521.02 7.12959C521.012 6.83331 521.175 6.56227 521.43 6.44974C521.684 6.33725 521.977 6.40685 522.165 6.62439C523.57 8.25844 524.359 11.161 524.329 14.5878C524.3 17.9356 523.508 21.2276 522.156 23.6198C522.036 23.8325 521.821 23.9609 521.592 23.9609Z" fill="#001F56"/>
<path d="M528.239 26.8488C528.238 26.8488 528.237 26.8488 528.236 26.8488L507.023 26.8488C506.737 26.8475 506.484 26.6466 506.398 26.352C506.313 26.0573 506.413 25.7364 506.647 25.5584C509.114 23.6786 513.005 22.5894 517.323 22.5701C517.361 22.5699 517.4 22.5698 517.438 22.5698C521.745 22.5698 525.774 23.5554 528.506 25.4457C528.565 25.487 528.617 25.5369 528.659 25.593C528.805 25.7239 528.897 25.9212 528.896 26.1415C528.894 26.5327 528.6 26.8488 528.239 26.8488Z" fill="#001F56"/>
<path d="M528.659 25.593C528.617 25.5369 528.565 25.487 528.506 25.4457C525.824 23.5903 521.894 22.6072 517.676 22.5715V26.8488L528.236 26.8488H528.239C528.6 26.8488 528.894 26.5327 528.896 26.1415C528.897 25.9212 528.805 25.7239 528.659 25.593Z" fill="#001F56"/>
<path d="M392.188 47.2257C392.277 47.2257 392.366 47.2144 392.454 47.1917C395.808 46.3241 397.924 45.0599 399.114 43.2131C400.218 41.5014 400.368 39.5852 400.527 37.5566C400.761 34.5739 401.003 31.4897 404.157 27.9968C404.476 27.6433 404.568 27.1186 404.39 26.6645C404.211 26.2105 403.798 25.9154 403.34 25.9154C400.404 25.9154 398.305 26.9697 396.923 29.1386C395.765 30.9545 395.295 33.281 394.841 35.5309C394.049 39.458 393.364 42.8497 389.48 43.506C388.985 43.5896 388.599 44.0107 388.528 44.5441C388.457 45.0774 388.718 45.5982 389.171 45.8277L391.702 47.1089C391.855 47.1863 392.021 47.2257 392.188 47.2257Z" fill="#001F56"/>
<path d="M384.189 46.6695C384.63 46.6695 385.05 46.3922 385.236 45.9285C386.558 42.6321 385.678 39.8174 384.746 36.8374C383.832 33.9131 382.796 30.5987 383.562 25.9669C383.672 25.2999 383.259 24.663 382.64 24.5443C382.02 24.4255 381.428 24.8701 381.317 25.5371C380.449 30.7865 381.634 34.5752 382.585 37.6196C383.442 40.3593 384.118 42.5233 383.143 44.9566C382.893 45.5785 383.159 46.3004 383.738 46.5688C383.885 46.6371 384.038 46.6695 384.189 46.6695Z" fill="#001F56"/>
<path d="M381.317 25.5371C381.428 24.8701 382.02 24.4255 382.64 24.5443C383.259 24.663 383.672 25.2999 383.562 25.9669C382.796 30.5987 383.832 33.9131 384.746 36.8374C384.814 37.054 384.881 37.2696 384.948 37.4848V46.358C384.739 46.5577 384.468 46.6695 384.189 46.6695C384.038 46.6695 383.885 46.6371 383.738 46.5688C383.159 46.3004 382.893 45.5785 383.143 44.9566C384.118 42.5233 383.442 40.3593 382.585 37.6196C381.634 34.5752 380.449 30.7865 381.317 25.5371Z" fill="#001F56"/>
<path d="M377.273 46.6047C377.459 46.6047 377.648 46.5555 377.822 46.452C378.374 46.1249 378.574 45.3789 378.27 44.7856C376.64 41.6036 374.484 40.4351 372.582 39.4041C370.393 38.2173 368.663 37.28 367.818 33.4037C367.674 32.7442 367.061 32.3351 366.448 32.4898C365.835 32.6446 365.455 33.3046 365.598 33.9642C366.687 38.9556 369.274 40.3579 371.556 41.595C373.319 42.5504 374.984 43.4529 376.274 45.9699C376.481 46.3755 376.871 46.6047 377.273 46.6047Z" fill="#001F56"/>
<path d="M390.042 46.8332C390.443 46.8332 390.816 46.6058 391.022 46.2329C395.906 37.3832 394.281 31.4807 392.848 26.273C391.557 21.5817 390.441 17.5302 393.634 11.5626C393.855 11.1507 393.834 10.6387 393.581 10.2488C393.329 9.85894 392.889 9.66121 392.454 9.74168C388.689 10.4361 386.436 13.0737 385.756 17.5812C385.198 21.282 385.715 25.8081 386.215 30.1853C386.963 36.7332 387.669 42.9179 384.604 44.3128C384.111 44.5374 383.829 45.1014 383.927 45.668C384.026 46.2346 384.478 46.651 385.013 46.6686L390.007 46.8326C390.019 46.833 390.03 46.8332 390.042 46.8332Z" fill="#001F56"/>
<path d="M378.184 46.6045C378.209 46.6045 378.235 46.6036 378.261 46.6017L383.885 46.1928C384.323 46.161 384.705 45.8611 384.867 45.422C385.029 44.9827 384.943 44.4824 384.644 44.1357C379.319 37.9472 378.867 27.6923 379.171 17.5322C379.187 17.0205 378.905 16.5523 378.465 16.358C378.024 16.1637 377.518 16.2839 377.195 16.6596C374.768 19.4821 373.405 24.4955 373.456 30.4146C373.506 36.1971 374.874 41.8834 377.21 46.0154C377.418 46.3827 377.788 46.6045 378.184 46.6045Z" fill="#001F56"/>
<path d="M366.704 51.5926C366.705 51.5926 366.707 51.5926 366.708 51.5926L403.349 51.5927C403.843 51.5905 404.279 51.2435 404.427 50.7346C404.576 50.2255 404.403 49.6713 403.999 49.3638C399.738 46.1169 393.016 44.2356 385.559 44.2021C385.492 44.2018 385.425 44.2017 385.359 44.2017C377.919 44.2017 370.961 45.904 366.242 49.1692C366.139 49.2405 366.051 49.3267 365.977 49.4235C365.726 49.6497 365.567 49.9905 365.568 50.3711C365.571 51.0468 366.079 51.5926 366.704 51.5926Z" fill="#001F56"/>
<path d="M365.977 49.4235C366.051 49.3267 366.139 49.2405 366.242 49.1692C370.874 45.9643 377.663 44.2663 384.948 44.2046V51.5927L366.708 51.5926H366.704C366.079 51.5926 365.571 51.0468 365.568 50.3711C365.567 49.9905 365.726 49.6497 365.977 49.4235Z" fill="#001F56"/>
<path d="M615.931 29.3532C613.507 29.2461 611.347 29.0768 608.921 28.9709C607.734 28.9187 606.354 28.4132 606.133 27.1718C605.966 26.2279 606.772 25.3427 607.652 25.1273C608.532 24.9131 609.446 25.1858 610.313 25.456C612.049 25.9977 613.785 26.5392 615.521 27.0809C617.621 27.7358 617.792 26.0388 616.954 24.7936C615.975 23.3393 614.442 22.4055 612.862 21.7855C609.776 20.574 606.255 20.3461 604.726 18.0862C603.958 16.9519 603.915 15.1639 604.947 14.2973C605.878 13.5166 607.295 13.7756 608.247 14.5252C610.147 16.0181 610.708 19.0537 612.916 20.1108C613.795 20.5317 614.619 20.0423 613.831 18.9491C612.242 16.7428 610.992 14.2625 610.141 11.6366C609.64 10.0827 609.405 8.05443 610.649 7.07828C611.792 6.17935 613.55 6.8977 614.301 8.18144C615.843 10.8148 614.205 14.2165 614.984 17.0939C615.329 18.3664 616.292 17.917 616.55 16.6034C618.59 6.20035 618.598 5.13696 619.741 3.89192C620.601 2.95438 622.238 2.70037 623.002 3.72879C623.512 4.41605 623.458 5.42462 623.115 6.22028C622.433 7.80159 616.778 12.8953 618.356 21.9261C618.637 23.536 619.697 23.5211 620.233 22.6719C620.497 22.2548 620.561 21.7368 620.62 21.2388C620.827 19.4645 621.034 17.6914 621.241 15.9172C621.433 14.2724 621.666 12.523 622.681 11.2654C623.696 10.0067 625.787 9.59449 626.764 10.8857C627.518 11.8805 627.268 13.4045 626.575 14.4467C625.882 15.4888 624.842 16.1973 623.911 17.0054C622.979 17.8122 622.095 18.8319 621.931 20.0957C621.77 21.3409 622.477 22.6233 624.167 21.7854C630.15 18.8183 633.487 11.065 630.664 8.21988C629.786 7.33584 628.477 7.09928 627.542 6.28245C626.506 5.37724 626.089 3.70381 626.688 2.43008C627.467 0.774103 630.684 -0.494669 631.807 4.02008C632.083 5.13448 632.248 6.31735 632.859 7.26986C633.47 8.22236 634.722 8.84745 635.66 8.26966C636.342 7.85004 636.625 6.96724 637.165 6.3572C638.088 5.31258 639.831 5.26777 640.8 6.26509C641.769 7.26241 641.784 9.11518 640.83 10.1287C639.461 11.5843 637.125 10.9853 635.321 11.7324C633.84 12.3463 632.836 13.8317 632.168 15.3632C631.5 16.8959 631.079 18.5482 630.296 20.0187C629.515 21.4891 628.254 22.8127 626.679 23.0318C629.193 25.796 633.308 21.3634 634.954 20.4968C636.356 19.7596 638.284 19.6688 639.274 20.9537C640.14 22.0781 639.882 23.8661 638.954 24.9319C638.026 25.9977 636.601 26.4335 635.234 26.4733C632.564 26.5493 629.714 25.2444 627.106 26.2255C627.32 27.6674 628.311 28.8303 629.33 29.8089C630.35 30.7876 631.473 31.7164 632.105 33.0113C632.738 34.3075 632.708 36.1179 631.619 37.0094C630.518 37.9097 628.816 37.4389 627.875 36.3532C626.934 35.2675 626.585 33.7547 626.357 32.2979C626.131 30.8411 625.982 29.3333 625.334 28.0271C624.686 26.721 623.379 25.649 622.002 25.8519C618.397 26.3848 619.271 32.2206 619.335 33.4819C619.41 34.9835 619.296 36.5984 618.439 37.7962C616.78 38.0515 615.369 36.2149 615.29 34.4356C615.213 32.6564 616.054 30.9954 616.872 29.4403" fill="#001F56"/>
<path d="M606.72 18.1645C607.5 18.1645 608.133 17.4928 608.133 16.6642C608.133 15.8355 607.5 15.1638 606.72 15.1638C605.94 15.1638 605.308 15.8355 605.308 16.6642C605.308 17.4928 605.94 18.1645 606.72 18.1645Z" fill="#001F56"/>
<path d="M612.171 11.207C612.951 11.207 613.583 10.5352 613.583 9.70659C613.583 8.87796 612.951 8.20622 612.171 8.20622C611.391 8.20622 610.759 8.87796 610.759 9.70659C610.759 10.5352 611.391 11.207 612.171 11.207Z" fill="#001F56"/>
<path d="M621.093 6.69092C621.873 6.69092 622.506 6.01918 622.506 5.19055C622.506 4.36192 621.873 3.69018 621.093 3.69018C620.314 3.69018 619.681 4.36192 619.681 5.19055C619.681 6.01918 620.314 6.69092 621.093 6.69092Z" fill="#001F56"/>
<path d="M629.184 5.19049C629.964 5.19049 630.596 4.51875 630.596 3.69012C630.596 2.86149 629.964 2.18975 629.184 2.18975C628.404 2.18975 627.772 2.86149 627.772 3.69012C627.772 4.51875 628.404 5.19049 629.184 5.19049Z" fill="#001F56"/>
<path d="M639.159 9.70901C639.939 9.70901 640.571 9.03727 640.571 8.20864C640.571 7.38001 639.939 6.70827 639.159 6.70827C638.379 6.70827 637.747 7.38001 637.747 8.20864C637.747 9.03727 638.379 9.70901 639.159 9.70901Z" fill="#001F56"/>
<path d="M624.604 14.2088C625.384 14.2088 626.016 13.5371 626.016 12.7084C626.016 11.8798 625.384 11.2081 624.604 11.2081C623.824 11.2081 623.192 11.8798 623.192 12.7084C623.192 13.5371 623.824 14.2088 624.604 14.2088Z" fill="#001F56"/>
<path d="M637.122 24.4499C637.902 24.4499 638.534 23.7782 638.534 22.9496C638.534 22.1209 637.902 21.4492 637.122 21.4492C636.342 21.4492 635.71 22.1209 635.71 22.9496C635.71 23.7782 636.342 24.4499 637.122 24.4499Z" fill="#001F56"/>
<path d="M630.091 36.5847C630.871 36.5847 631.503 35.9129 631.503 35.0843C631.503 34.2557 630.871 33.5839 630.091 33.5839C629.311 33.5839 628.679 34.2557 628.679 35.0843C628.679 35.9129 629.311 36.5847 630.091 36.5847Z" fill="#001F56"/>
<path d="M617.343 35.7842C618.123 35.7842 618.756 35.1124 618.756 34.2838C618.756 33.4552 618.123 32.7834 617.343 32.7834C616.564 32.7834 615.931 33.4552 615.931 34.2838C615.931 35.1124 616.564 35.7842 617.343 35.7842Z" fill="#001F56"/>
<path d="M608.411 28.4231C609.191 28.4231 609.823 27.7514 609.823 26.9228C609.823 26.0941 609.191 25.4224 608.411 25.4224C607.631 25.4224 606.999 26.0941 606.999 26.9228C606.999 27.7514 607.631 28.4231 608.411 28.4231Z" fill="#001F56"/>
<path d="M729.645 10.1523C729.519 10.5705 729.102 10.8034 728.714 10.6681C728.326 10.5328 728.116 10.0813 728.242 9.66313C728.368 9.24492 728.784 9.01207 729.172 9.14737C729.56 9.28266 729.771 9.73414 729.645 10.1523Z" fill="#001F56"/>
<path d="M732.987 33.6266C733.427 33.2127 734.021 32.6138 734.459 32.1865C733.868 28.9712 733.042 24.2421 733.194 20.963C731.66 24.8237 730.795 31.3536 730.891 35.7507C731.649 34.9361 732.186 34.3737 732.987 33.6266Z" fill="#001F56"/>
<path d="M727.846 41.8733L727.841 41.8899C727.389 44.5181 727.29 47.2013 727.552 49.8552C728.102 49.9682 728.645 50.1207 729.177 50.3064C729.952 50.5739 730.706 50.9181 731.425 51.337L731.421 51.3118C730.836 48.1437 731.103 44.8523 732.187 41.8326C733.19 39.2203 734.539 36.7841 736.189 34.5923C736.629 33.9448 737.069 33.2973 737.494 32.642C739.469 29.5893 740.5 26.1597 741.466 22.6212C742.08 20.7056 742.384 18.6878 742.364 16.6642C741.313 21.7223 738.429 28.0477 736.034 30.6916C735.728 31.0313 735.404 31.3539 735.077 31.6813L735.077 31.6836C734.553 32.2074 734.02 32.7147 733.493 33.2085C731.509 35.0686 729.634 36.8226 728.622 39.2976C728.287 40.1262 728.028 40.9888 727.846 41.8733Z" fill="#001F56"/>
<path d="M735.661 45.228C736.264 44.682 738.174 44.252 739.122 44.1352C740.3 43.9901 741.038 43.9472 741.955 43.6657C742.553 43.6115 743.053 43.3082 743.634 43.1485C745.026 42.7095 746.277 41.3234 747.456 38.9041C748.036 37.5178 748.369 36.0269 748.429 34.5091C747.588 36.4005 746.346 38.0548 744.806 39.3376C743.725 40.0659 742.45 40.3803 741.188 40.221C740.77 40.2147 740.377 40.2192 739.983 40.2474C740.656 38.2529 742.196 34.0662 743.829 32.27C746.069 29.7084 747.371 26.35 747.491 22.829C747.488 22.5417 747.347 22.2796 747.118 22.1394C746.886 22.0007 746.607 22.0007 746.378 22.1494C746.151 22.2933 746.01 22.5593 746.012 22.8434C745.888 25.9406 744.736 28.8892 742.77 31.1525C740.412 33.7542 738.396 40.2796 738.234 40.819C737.937 40.9937 736.105 40.6994 735.845 40.9344C735.85 42.2857 735.838 43.8873 735.661 45.228Z" fill="#001F56"/>
<path d="M727.506 49.7521C727.506 49.7521 729.287 50.3476 729.621 50.5536C730.165 50.346 728.258 49.3476 728.831 49.2696C728.138 46.7576 727.764 44.1554 727.724 41.5377C727.707 41.5029 727.687 41.4777 727.672 41.4481C727.682 41.3966 727.688 41.3445 727.69 41.2894C727.643 40.3381 727.66 39.3822 727.744 38.4323C727.908 36.9495 727.876 35.4544 727.649 33.9872C727.328 32.5208 726.806 31.1167 726.094 29.8269C724.471 26.9704 722.975 23.5089 724.202 19.4708C724.296 19.196 724.241 18.8924 724.067 18.6716C723.887 18.4501 723.614 18.3576 723.352 18.4198C723.089 18.4845 722.877 18.6989 722.801 18.9785C721.386 23.6389 723.037 27.5022 724.838 30.6681C725.472 31.8273 725.937 33.0857 726.218 34.4014C726.397 35.7064 726.415 37.0314 726.268 38.3403C726.243 38.7721 726.219 39.1865 726.204 39.5944C725.88 39.2918 725.54 38.9896 725.171 38.6836C724.783 38.3527 724.384 38.0179 723.988 37.6533C723.228 36.9205 722.574 36.068 722.043 35.128C722.186 37.3463 722.717 40.2098 724.374 42.0347C726.146 43.9295 727.506 49.7521 727.506 49.7521Z" fill="#001F56"/>
<path d="M733.162 52.1239C733.47 52.0367 733.787 51.9952 734.102 52.0051C734.123 51.9417 734.151 51.8829 734.182 51.8281C735.272 48.4879 735.855 44.9837 735.917 41.45C735.836 41.2591 735.833 41.0428 735.905 40.847C735.876 39.9444 735.259 36.9092 735.108 36.0189C734.263 37.3286 733.515 38.3414 732.989 39.8305C732.007 42.5625 732.338 48.0792 732.857 50.9513C732.929 51.3072 733.025 51.6558 733.143 51.9939C733.155 52.0371 733.159 52.0781 733.162 52.1239Z" fill="#001F56"/>
<path d="M730.605 14.6857C730.479 15.1062 730.06 15.336 729.675 15.2014C729.287 15.0661 729.076 14.617 729.202 14.1965C729.328 13.7783 729.744 13.5478 730.132 13.6831C730.518 13.8176 730.731 14.2675 730.605 14.6857Z" fill="#001F56"/>
<path d="M751.903 26.3126C751.777 26.7308 751.358 26.9629 750.972 26.8284C750.584 26.6931 750.374 26.2416 750.499 25.8234C750.625 25.4052 751.042 25.1724 751.43 25.3077C751.816 25.4422 752.029 25.8944 751.903 26.3126Z" fill="#001F56"/>
<path d="M752.574 21.5082C752.448 21.9264 752.03 22.1561 751.644 22.0216C751.256 21.8863 751.045 21.4372 751.171 21.019C751.298 20.5984 751.714 20.3679 752.102 20.5032C752.488 20.6377 752.701 21.0876 752.574 21.5082Z" fill="#001F56"/>
</svg>
